<svg width="237" height="180" viewBox="0 0 237 180" fill="none" xmlns="http://www.w3.org/2000/svg">
<path d="M114.923 177.687L4.61319 112.507C1.09319 110.507 -1.91681 107.297 1.50319 105.177L112.223 41.3872C113.873 40.3872 116.403 39.6872 118.093 40.6672L233.873 107.857C237.393 109.857 238.023 115.577 234.523 117.637L129.463 177.637C127.253 178.908 124.75 179.582 122.2 179.59C119.65 179.599 117.142 178.943 114.923 177.687Z" fill="#5B36A0"/>
<path d="M114.923 174.677L4.61319 109.497C1.09319 107.497 -1.91681 104.287 1.50319 102.167L112.223 38.3772C113.873 37.3772 116.403 36.6772 118.093 37.6572L233.873 104.847C237.393 106.847 238.023 112.567 234.523 114.627L129.463 174.627C127.253 175.898 124.75 176.572 122.2 176.58C119.65 176.589 117.142 175.933 114.923 174.677Z" fill="#6862E6"/>
<path opacity="0.25" d="M124.003 88.6872L102.253 101.097C102.253 101.097 135.783 121.557 142.643 124.437L155.183 106.437" fill="url(#paint0_linear_29_113)"/>
<path opacity="0.25" d="M116.503 148.257L94.7332 135.867L73.0032 148.287C73.0032 148.287 84.3432 155.207 95.1832 161.557C102.003 156.687 108.903 151.767 116.503 148.257Z" fill="url(#paint1_linear_29_113)"/>
<path opacity="0.46" d="M69.5932 71.7272L55.7832 79.6072C55.7832 79.6072 56.9532 86.8272 63.7832 89.7172L81.8932 78.1372" fill="url(#paint2_linear_29_113)"/>
<path d="M76.3532 79.6072C80.9537 79.6072 84.6832 76.9836 84.6832 73.7472C84.6832 70.5108 80.9537 67.8872 76.3532 67.8872C71.7527 67.8872 68.0232 70.5108 68.0232 73.7472C68.0232 76.9836 71.7527 79.6072 76.3532 79.6072Z" fill="#68E1FD"/>
<path d="M76.3431 72.8372C79.7894 72.8372 82.5832 71.6956 82.5832 70.2872C82.5832 68.8789 79.7894 67.7372 76.3431 67.7372C72.8969 67.7372 70.1031 68.8789 70.1031 70.2872C70.1031 71.6956 72.8969 72.8372 76.3431 72.8372Z" fill="#974C26"/>
<path d="M76.1233 65.9972C76.1233 64.8472 76.1233 63.6972 75.9933 62.5472L75.9033 61.6472L75.8433 61.0672C75.8307 60.865 75.8006 60.6642 75.7533 60.4672L75.6333 59.7672C74.9519 55.859 73.4339 52.1442 71.1833 48.8772C70.3357 50.8928 69.9103 53.0608 69.9333 55.2472C69.9333 55.8972 69.9933 56.5372 70.0433 57.1472V57.5172C70.0433 57.8272 70.1533 58.1672 70.2133 58.4472C70.4701 59.618 70.8042 60.7705 71.2133 61.8972C71.5815 62.9321 72.033 63.9353 72.5633 64.8972C73.1333 65.9872 73.7433 67.0472 74.4133 68.0872C74.9233 68.8972 75.4133 69.6172 75.9033 70.3072C76.051 68.8753 76.1244 67.4367 76.1233 65.9972ZM72.8433 53.0872C72.8732 52.9387 72.8732 52.7857 72.8433 52.6372C73.0033 52.7972 73.1633 52.9672 73.3133 53.1372C73.158 53.1073 72.9985 53.1073 72.8433 53.1372V53.0872Z" fill="#999A1C"/>
<path d="M78.2632 66.9172C78.9014 65.9502 79.4856 64.9487 80.0132 63.9172C80.1632 63.6472 80.2932 63.3872 80.4332 63.1172L80.6932 62.5872L80.9432 62.0372C81.0332 61.8172 81.1332 61.5972 81.2232 61.3872C82.7632 57.7302 83.4932 53.7831 83.3632 49.8172C81.5553 51.0529 80.0231 52.6498 78.8632 54.5072C78.5232 55.0472 78.2132 55.5972 77.9232 56.1572L77.7932 56.3972V56.4972L77.4332 57.3672C77.0201 58.4892 76.686 59.6387 76.4332 60.8072C76.1822 61.8827 76.015 62.9759 75.9332 64.0772C75.8232 65.2972 75.7632 66.5172 75.7632 67.7472C75.7632 68.7472 75.7632 69.5772 75.8232 70.4172C76.6232 69.2972 77.4832 68.1272 78.2632 66.9172ZM82.5032 54.2572C82.6064 54.1426 82.6817 54.0057 82.7232 53.8572C82.7232 54.0872 82.8132 54.2972 82.8432 54.5072C82.7455 54.4045 82.6304 54.3198 82.5032 54.2572Z" fill="#999A1C"/>
<path d="M78.2132 69.7872C78.8632 69.4572 79.5032 69.1172 80.1432 68.7372L80.6332 68.4472L80.9432 68.2472L81.2532 68.0272L81.6132 67.7672C83.623 66.29 85.2909 64.397 86.5032 62.2172C85.1305 62.3078 83.7903 62.6752 82.5632 63.2972C82.2132 63.4772 81.8732 63.6772 81.5632 63.8872L81.4132 63.9772L80.9332 64.3372C80.3415 64.8039 79.7834 65.3119 79.2632 65.8572C78.7853 66.3581 78.3442 66.8928 77.9432 67.4572C77.4832 68.1072 77.0632 68.7472 76.6532 69.3872C76.2432 70.0272 76.0732 70.3872 75.8232 70.8572C76.5732 70.5472 77.4032 70.1872 78.2132 69.7872ZM84.5932 64.3172C84.6846 64.2866 84.7694 64.2391 84.8432 64.1772C84.8432 64.3172 84.7432 64.4472 84.6832 64.5772C84.673 64.488 84.6422 64.4025 84.5932 64.3272V64.3172Z" fill="#999A1C"/>
<path d="M76.1233 65.9972C76.1233 64.8472 76.1233 63.6972 75.9933 62.5472L75.9033 61.6472L75.8433 61.0672C75.8307 60.865 75.8006 60.6642 75.7533 60.4672L75.6333 59.7672C74.9519 55.859 73.4339 52.1442 71.1833 48.8772C70.3357 50.8928 69.9103 53.0608 69.9333 55.2472C69.9333 55.8972 69.9933 56.5372 70.0433 57.1472V57.5172C70.0433 57.8272 70.1533 58.1672 70.2133 58.4472C70.4701 59.618 70.8042 60.7705 71.2133 61.8972C71.5815 62.9321 72.033 63.9353 72.5633 64.8972C73.1333 65.9872 73.7433 67.0472 74.4133 68.0872C74.9233 68.8972 75.4133 69.6172 75.9033 70.3072C76.051 68.8753 76.1244 67.4367 76.1233 65.9972ZM72.8433 53.0872C72.8732 52.9387 72.8732 52.7857 72.8433 52.6372C73.0033 52.7972 73.1633 52.9672 73.3133 53.1372C73.158 53.1073 72.9985 53.1073 72.8433 53.1372V53.0872Z" fill="#999A1C"/>
<path d="M78.2632 66.9172C78.9014 65.9502 79.4856 64.9487 80.0132 63.9172C80.1632 63.6472 80.2932 63.3872 80.4332 63.1172L80.6932 62.5872L80.9432 62.0372C81.0332 61.8172 81.1332 61.5972 81.2232 61.3872C82.7632 57.7302 83.4932 53.7831 83.3632 49.8172C81.5553 51.0529 80.0231 52.6498 78.8632 54.5072C78.5232 55.0472 78.2132 55.5972 77.9232 56.1572L77.7932 56.3972V56.4972L77.4332 57.3672C77.0201 58.4892 76.686 59.6387 76.4332 60.8072C76.1822 61.8827 76.015 62.9759 75.9332 64.0772C75.8232 65.2972 75.7632 66.5172 75.7632 67.7472C75.7632 68.7472 75.7632 69.5772 75.8232 70.4172C76.6232 69.2972 77.4832 68.1272 78.2632 66.9172ZM82.5032 54.2572C82.6064 54.1426 82.6817 54.0057 82.7232 53.8572C82.7232 54.0872 82.8132 54.2972 82.8432 54.5072C82.7455 54.4045 82.6304 54.3198 82.5032 54.2572Z" fill="#999A1C"/>
<path d="M78.2132 69.7872C78.8632 69.4572 79.5032 69.1172 80.1432 68.7372L80.6332 68.4472L80.9432 68.2472L81.2532 68.0272L81.6132 67.7672C83.623 66.29 85.2909 64.397 86.5032 62.2172C85.1305 62.3078 83.7903 62.6752 82.5632 63.2972C82.2132 63.4772 81.8732 63.6772 81.5632 63.8872L81.4132 63.9772L80.9332 64.3372C80.3415 64.8039 79.7834 65.3119 79.2632 65.8572C78.7853 66.3581 78.3442 66.8928 77.9432 67.4572C77.4832 68.1072 77.0632 68.7472 76.6532 69.3872C76.2432 70.0272 76.0732 70.3872 75.8232 70.8572C76.5732 70.5472 77.4032 70.1872 78.2132 69.7872ZM84.5932 64.3172C84.6846 64.2866 84.7694 64.2391 84.8432 64.1772C84.8432 64.3172 84.7432 64.4472 84.6832 64.5772C84.673 64.488 84.6422 64.4025 84.5932 64.3272V64.3172Z" fill="#999A1C"/>
<path d="M132.663 83.8372L120.663 89.6272C120.203 89.8362 119.809 90.1679 119.525 90.586C119.241 91.0041 119.078 91.4924 119.053 91.9972C119.034 92.5003 119.151 92.9992 119.392 93.4411C119.633 93.883 119.99 94.2514 120.423 94.5072L149.003 111.177C149.621 111.538 150.354 111.645 151.049 111.478C151.745 111.31 152.348 110.88 152.733 110.277L159.673 99.4872" fill="#A1482D"/>
<path d="M198.193 55.9172L102.123 0.577228C101.465 0.19843 100.719 -0.000635897 99.9595 1.526e-06C99.2002 0.000638949 98.4544 0.200957 97.7969 0.58086C97.1394 0.960762 96.5934 1.50689 96.2136 2.16445C95.8338 2.82201 95.6337 3.56788 95.6332 4.32723V61.9072C95.637 62.5347 95.8052 63.1501 96.1211 63.6923C96.4369 64.2345 96.8893 64.6844 97.4332 64.9972L199.853 124.097C200.205 124.304 200.605 124.413 201.012 124.415C201.42 124.417 201.821 124.311 202.174 124.108C202.528 123.905 202.821 123.612 203.025 123.259C203.228 122.906 203.335 122.505 203.333 122.097V64.7772C203.333 62.9785 202.857 61.2119 201.955 59.656C201.052 58.1002 199.754 56.8104 198.193 55.9172Z" fill="#F47B56"/>
<path d="M102.133 4.92723L195.303 58.5172C196.297 59.0909 197.122 59.9159 197.696 60.9094C198.27 61.9029 198.573 63.0299 198.573 64.1772V107.337C198.565 107.746 198.45 108.146 198.24 108.497C198.031 108.849 197.733 109.14 197.377 109.341C197.021 109.543 196.619 109.649 196.21 109.648C195.8 109.647 195.399 109.54 195.043 109.337L100.003 54.8972C99.6495 54.6954 99.3546 54.4047 99.1477 54.0539C98.9407 53.7032 98.8289 53.3045 98.8232 52.8972V6.82723C98.8261 6.44442 98.9289 6.06898 99.1213 5.73803C99.3137 5.40708 99.5892 5.13208 99.9204 4.94019C100.252 4.7483 100.627 4.64617 101.01 4.6439C101.393 4.64163 101.77 4.73929 102.103 4.92723H102.133Z" fill="white"/>
<path d="M141.335 86.3371C142.436 86.1251 143.132 84.9333 142.89 83.6751C142.648 82.4169 141.559 81.5688 140.458 81.7808C139.357 81.9928 138.661 83.1847 138.903 84.4428C139.146 85.701 140.235 86.5491 141.335 86.3371Z" fill="#AB643C"/>
<path opacity="0.32" d="M127.173 63.4772L170.473 89.4872L191.863 77.0572L153.643 54.8172" fill="url(#paint3_linear_29_113)"/>
<path d="M180.683 58.3072L133.873 29.7672C133.623 29.6224 133.338 29.5472 133.049 29.5496C132.759 29.5521 132.476 29.6319 132.228 29.781C131.98 29.93 131.776 30.1427 131.638 30.3971C131.5 30.6514 131.433 30.938 131.443 31.2272V47.4872C131.438 47.7816 131.511 48.072 131.653 48.3299C131.795 48.5877 132.002 48.804 132.253 48.9572L179.063 76.8872C179.308 77.0276 179.586 77.1014 179.868 77.1014C180.151 77.1014 180.428 77.0276 180.673 76.8872C180.916 76.7425 181.117 76.5376 181.257 76.2923C181.397 76.0471 181.472 75.7697 181.473 75.4872L181.713 60.3272C181.734 59.9298 181.649 59.5339 181.468 59.1794C181.288 58.8249 181.017 58.5241 180.683 58.3072Z" fill="#E2AC00"/>
<path d="M169.483 66.6672C171.163 69.0172 174.113 69.6672 176.063 68.1472C178.013 66.6272 178.253 63.4672 176.573 61.1472C174.893 58.8272 171.943 58.1472 169.983 59.6772C168.023 61.2072 167.803 64.3272 169.483 66.6672Z" fill="white"/>
<path d="M164.893 55.4072L145.793 43.9072C145.63 43.8386 145.447 43.8317 145.279 43.8877C145.111 43.9438 144.969 44.0591 144.88 44.2121C144.791 44.365 144.76 44.5452 144.794 44.7191C144.827 44.893 144.923 45.0487 145.063 45.1572L164.153 56.6472C164.315 56.7137 164.495 56.7199 164.661 56.6646C164.827 56.6094 164.968 56.4963 165.057 56.3461C165.147 56.1959 165.18 56.0185 165.15 55.8461C165.12 55.6738 165.028 55.518 164.893 55.4072Z" fill="#F2F2F2"/>
<path d="M164.103 60.0772L137.783 44.2372C137.623 44.1804 137.447 44.1824 137.288 44.2428C137.128 44.3032 136.996 44.4182 136.913 44.5672C136.83 44.7147 136.801 44.8868 136.833 45.0532C136.864 45.2196 136.952 45.3697 137.083 45.4772L163.373 61.3272C163.536 61.4042 163.722 61.4171 163.895 61.3634C164.067 61.3097 164.213 61.1933 164.303 61.0372C164.407 60.8774 164.444 60.6834 164.407 60.4965C164.369 60.3097 164.26 60.1448 164.103 60.0372V60.0772Z" fill="#F2F2F2"/>
<path d="M171.343 61.4572L124.553 32.9272C124.303 32.7824 124.018 32.7072 123.729 32.7097C123.439 32.7121 123.156 32.7919 122.908 32.941C122.66 33.09 122.456 33.3027 122.318 33.5571C122.18 33.8114 122.113 34.0981 122.123 34.3872V50.6372C122.119 50.9316 122.191 51.222 122.333 51.4799C122.475 51.7377 122.682 51.954 122.933 52.1072L169.743 79.9972C169.991 80.1428 170.273 80.2191 170.56 80.2181C170.847 80.2171 171.129 80.1388 171.375 79.9916C171.622 79.8443 171.824 79.6334 171.961 79.3811C172.098 79.1287 172.164 78.8441 172.153 78.5572L172.403 63.4072C172.416 63.0104 172.325 62.6172 172.139 62.2664C171.953 61.9156 171.679 61.6195 171.343 61.4072V61.4572Z" fill="#F47B56"/>
<path d="M160.143 69.8272C161.823 72.1672 164.773 72.8272 166.723 71.2972C168.673 69.7672 168.913 66.6172 167.233 64.2972C165.553 61.9772 162.603 61.2972 160.643 62.8272C158.683 64.3572 158.463 67.4772 160.143 69.8272Z" fill="white"/>
<path d="M155.543 58.5572L136.443 47.0672C136.279 46.9791 136.088 46.9578 135.908 47.008C135.729 47.0581 135.576 47.1757 135.482 47.3361C135.387 47.4965 135.359 47.6872 135.402 47.8683C135.445 48.0494 135.557 48.2067 135.713 48.3072L154.803 59.8072C154.967 59.8819 155.152 59.8936 155.324 59.84C155.495 59.7865 155.641 59.6716 155.733 59.5172C155.786 59.4385 155.822 59.3501 155.841 59.2572C155.859 59.1643 155.859 59.0686 155.841 58.9757C155.822 58.8828 155.785 58.7945 155.733 58.7158C155.68 58.6371 155.612 58.5697 155.533 58.5172L155.543 58.5572Z" fill="#F2F2F2"/>
<path d="M154.753 63.2572L128.443 47.3872C128.28 47.3103 128.094 47.2974 127.922 47.3511C127.75 47.4048 127.604 47.5212 127.513 47.6772C127.409 47.837 127.372 48.0311 127.41 48.2179C127.447 48.4048 127.556 48.5696 127.713 48.6772L154.003 64.4772C154.166 64.5542 154.353 64.5671 154.525 64.5134C154.697 64.4597 154.843 64.3433 154.933 64.1872C155.037 64.0274 155.074 63.8334 155.037 63.6465C154.999 63.4597 154.891 63.2948 154.733 63.1872L154.753 63.2572Z" fill="#F2F2F2"/>
<path d="M159.603 63.3672L112.803 34.8472C112.553 34.6989 112.268 34.6209 111.977 34.6217C111.686 34.6225 111.401 34.7019 111.152 34.8516C110.903 35.0013 110.699 35.2157 110.562 35.472C110.425 35.7282 110.36 36.0169 110.373 36.3072V52.5572C110.372 52.8507 110.447 53.1393 110.591 53.3952C110.735 53.651 110.942 53.8653 111.193 54.0172L158.003 81.9972C158.251 82.1419 158.534 82.2175 158.821 82.2162C159.109 82.2149 159.39 82.1368 159.637 81.9898C159.884 81.8429 160.087 81.6326 160.226 81.3807C160.364 81.1287 160.432 80.8444 160.423 80.5572L160.663 65.4072C160.675 65.0117 160.585 64.6198 160.401 64.2694C160.217 63.9191 159.946 63.6221 159.613 63.4072L159.603 63.3672Z" fill="#68E1FD"/>
<path d="M159.603 63.3672L112.803 34.8472C112.553 34.6989 112.268 34.6209 111.977 34.6217C111.686 34.6225 111.401 34.7019 111.152 34.8516C110.903 35.0013 110.699 35.2157 110.562 35.472C110.425 35.7282 110.36 36.0169 110.373 36.3072V52.5572C110.372 52.8507 110.447 53.1393 110.591 53.3952C110.735 53.651 110.942 53.8653 111.193 54.0172L158.003 81.9972C158.251 82.1419 158.534 82.2175 158.821 82.2162C159.109 82.2149 159.39 82.1368 159.637 81.9898C159.884 81.8429 160.087 81.6326 160.226 81.3807C160.364 81.1287 160.432 80.8444 160.423 80.5572L160.663 65.4072C160.675 65.0117 160.585 64.6198 160.401 64.2694C160.217 63.9191 159.946 63.6221 159.613 63.4072L159.603 63.3672Z" fill="#68E1FD"/>
<path d="M148.393 71.7372C150.073 74.0872 153.023 74.7372 154.983 73.2072C156.943 71.6772 157.163 68.5372 155.483 66.2072C153.803 63.8772 150.853 63.2072 148.893 64.7372C146.933 66.2672 146.733 69.3872 148.393 71.7372Z" fill="white"/>
<path d="M143.803 60.4672L124.703 48.9972C124.54 48.9286 124.357 48.9217 124.189 48.9777C124.021 49.0338 123.879 49.1491 123.79 49.302C123.701 49.455 123.67 49.6352 123.704 49.8091C123.737 49.983 123.833 50.1387 123.973 50.2472L143.063 61.7372C143.226 61.8166 143.413 61.8308 143.586 61.7769C143.759 61.723 143.904 61.605 143.993 61.4472C144.046 61.3685 144.082 61.2801 144.101 61.1872C144.119 61.0943 144.119 60.9986 144.101 60.9057C144.082 60.8128 144.045 60.7245 143.993 60.6458C143.94 60.5671 143.872 60.4996 143.793 60.4472L143.803 60.4672Z" fill="#F2F2F2"/>
<path d="M143.003 65.1472L116.693 49.3072C116.53 49.2386 116.347 49.2317 116.179 49.2878C116.011 49.3439 115.869 49.4591 115.78 49.6121C115.691 49.765 115.66 49.9452 115.694 50.1191C115.727 50.293 115.823 50.4487 115.963 50.5572L142.273 66.3972C142.437 66.4733 142.624 66.4857 142.797 66.432C142.969 66.3784 143.116 66.2625 143.208 66.1068C143.3 65.9511 143.331 65.7667 143.295 65.5894C143.259 65.4122 143.159 65.2546 143.013 65.1472H143.003Z" fill="#F2F2F2"/>
<path d="M98.1832 61.7772C95.1592 64.3798 92.8727 67.7319 91.5532 71.4972C89.2232 77.9272 95.0032 88.4372 95.0032 88.4372L104.063 81.2672" fill="#FF8F6F"/>
<path d="M97.2032 146.797L94.7432 145.447L95.3932 141.927C95.3932 141.927 99.0532 142.277 99.3932 143.577" fill="#003B94"/>
<path d="M98.1031 146.747C98.6631 146.407 99.2331 146.107 99.8131 145.807C101.233 145.027 103.283 144.217 104.163 142.757C104.341 142.463 104.424 142.122 104.403 141.778C104.382 141.435 104.256 141.107 104.043 140.837C102.753 139.277 99.9431 141.837 98.4931 140.107C98.2131 139.767 98.0832 134.367 98.0832 134.367L92.6031 135.837C92.6031 135.837 91.6731 146.707 91.7731 147.377C91.8731 148.047 93.7731 148.667 93.7731 148.667C94.3347 148.548 94.87 148.327 95.3531 148.017C95.9331 147.607 95.3532 142.507 96.1432 143.217C96.9332 143.927 97.1932 146.727 97.1932 146.727C97.4948 146.768 97.8 146.775 98.1031 146.747Z" fill="#F47B56"/>
<path d="M107.673 152.057L105.213 150.717L105.853 147.207C105.853 147.207 109.513 147.557 109.853 148.847" fill="#003B94"/>
<path d="M108.593 151.997C109.153 151.647 109.733 151.347 110.303 151.047C111.723 150.267 113.773 149.467 114.653 148.047C114.83 147.751 114.914 147.408 114.892 147.064C114.871 146.719 114.746 146.389 114.533 146.117C113.243 144.557 110.433 147.117 108.993 145.397C108.703 145.057 108.573 139.647 108.573 139.647L103.093 141.127C103.093 141.127 102.153 152.037 102.263 152.677C102.373 153.317 104.263 153.957 104.263 153.957C104.825 153.844 105.361 153.627 105.843 153.317C106.413 152.897 105.843 147.797 106.623 148.517C107.403 149.237 107.683 152.017 107.683 152.017C107.986 152.05 108.292 152.043 108.593 151.997Z" fill="#F47B56"/>
<path d="M89.8132 116.727L88.2032 138.307C88.2032 138.307 90.7733 141.857 99.4033 139.887L99.4833 125.337" fill="#3E2928"/>
<path d="M99.7732 120.997C99.5932 122.857 99.7732 143.357 99.7732 143.357C99.7732 143.357 102.163 147.827 112.553 143.357L112.403 125.937" fill="#3E2928"/>
<path d="M89.0032 123.857C89.7032 124.347 89.9532 121.857 90.6932 122.257C93.3872 123.82 96.2485 125.075 99.2232 125.997H99.2832C99.4306 125.937 99.5957 125.937 99.7432 125.997C99.8171 126.025 99.8845 126.068 99.9412 126.123C99.998 126.178 100.043 126.244 100.073 126.317C101.908 126.859 103.775 127.287 105.663 127.597C108.093 127.987 110.093 126.197 112.583 126.067C112.583 116.537 112.583 89.4172 108.583 83.6272L96.5832 79.6272C96.5232 80.6272 90.7532 87.3072 90.8932 95.4572C90.8726 102.388 90.4586 109.313 89.6532 116.197C89.6032 116.637 89.0032 123.337 89.0032 123.857Z" fill="#3E2928"/>
<path d="M109.673 72.6572L108.573 83.5872C108.573 83.5872 99.5732 83.9472 95.7532 81.2872V71.9972" fill="#FF8F6F"/>
<path d="M121.073 65.4572L120.153 66.7072C120.645 65.6937 121.075 64.6519 121.443 63.5872C121.703 62.8672 120.533 62.5872 120.283 63.2972L120.143 63.6772C120.253 63.2872 120.363 62.8972 120.463 62.5072C120.502 62.3521 120.477 62.188 120.394 62.0511C120.312 61.9142 120.178 61.8157 120.023 61.7772C119.868 61.7388 119.704 61.7635 119.567 61.846C119.43 61.9286 119.332 62.0621 119.293 62.2172C119.045 63.2331 118.741 64.2346 118.383 65.2172C118.582 64.3471 118.725 63.4653 118.813 62.5772C118.893 61.8172 117.683 61.8472 117.613 62.5772C117.514 63.5901 117.334 64.5934 117.073 65.5772C117.071 65.242 117.041 64.9075 116.983 64.5772C116.974 64.491 116.945 64.4079 116.9 64.3337C116.855 64.2595 116.795 64.1958 116.723 64.1472C116.723 64.0172 116.653 63.8872 116.613 63.7472C116.564 63.6139 116.471 63.5014 116.349 63.4286C116.227 63.3558 116.084 63.3271 115.943 63.3472C115.803 63.3684 115.676 63.4382 115.582 63.5443C115.489 63.6504 115.436 63.786 115.433 63.9272L115.353 68.4272C115.139 68.8964 114.856 69.3312 114.513 69.7172C115.093 70.1127 115.651 70.54 116.183 70.9972C116.664 71.3977 117.121 71.8251 117.553 72.2772C117.933 71.7972 118.303 71.2772 118.663 70.8172L118.783 70.6872C119.85 69.0939 120.957 67.5339 122.103 66.0072C122.573 65.4372 121.523 64.8472 121.073 65.4572Z" fill="#FFB5A9"/>
<path d="M104.003 62.6872C104.003 62.6872 108.233 63.8272 110.003 66.5472C111.076 68.4318 112.022 70.3861 112.833 72.3972L115.963 67.5372C115.963 67.5372 119.763 68.7072 121.263 70.5372C121.263 70.5372 116.763 80.3772 112.833 81.2172C108.903 82.0572 104.743 75.4472 104.743 75.4472C104.743 75.4472 103.883 78.2072 104.053 75.2572" fill="#FF8F6F"/>
<path d="M106.683 73.2072C105.458 72.2024 104.531 70.8813 104.003 69.3872C103.503 67.6572 104.133 66.1372 104.723 64.5272C105.371 62.9347 105.746 61.2444 105.833 59.5272C105.83 57.8573 105.743 56.1885 105.573 54.5272C105.563 54.4542 105.563 54.3802 105.573 54.3072C105.013 52.4072 103.853 50.7972 101.573 50.6072C95.6632 50.1072 95.3232 56.6072 95.3732 59.3172C95.4232 62.0272 95.6932 63.7772 93.7332 64.8872C91.7732 65.9972 90.3532 68.8872 92.2332 71.2872C94.1132 73.6872 92.4232 72.7772 91.1732 74.8772C89.9232 76.9772 90.2532 79.5872 92.8132 80.5372C95.3732 81.4872 107.273 79.7072 108.363 78.6072C108.753 78.1642 108.954 77.5864 108.923 76.9972C108.655 75.5196 107.864 74.1882 106.693 73.2472L106.683 73.2072Z" fill="#007F68"/>
<path d="M112.493 19.2072C113.492 20.6509 114.071 22.3439 114.163 24.0972C114.28 24.8983 114.087 25.7137 113.623 26.3772C113.425 26.5941 113.16 26.7392 112.871 26.7898C112.581 26.8405 112.283 26.7939 112.023 26.6572C111.699 26.5259 111.406 26.3283 111.163 26.0772C110.945 25.8737 110.759 25.6376 110.613 25.3772L110.453 25.0772C110.413 25.1565 110.362 25.2304 110.303 25.2972C110.147 25.413 109.965 25.4886 109.773 25.5172C109.437 25.5869 109.087 25.5484 108.773 25.4072C108.064 25.0966 107.472 24.5676 107.083 23.8972C106.623 23.1646 106.367 22.3221 106.343 21.4572C106.294 21.1112 106.322 20.7585 106.426 20.4247C106.53 20.091 106.707 19.7844 106.943 19.5272C107.147 19.3321 107.406 19.2037 107.684 19.159C107.963 19.1144 108.249 19.1556 108.503 19.2772C108.758 19.3867 108.994 19.5351 109.203 19.7172C109.38 19.865 109.534 20.0366 109.663 20.2272L109.783 20.4372V19.8572L111.073 20.3572L111.193 23.9772C111.202 24.2384 111.286 24.4915 111.433 24.7072C111.555 24.9125 111.737 25.0763 111.953 25.1772C112.573 25.4172 112.863 24.8772 112.823 23.5672C112.755 22.2609 112.322 20.9999 111.573 19.9272C110.907 18.8339 109.908 17.9824 108.723 17.4972C108.295 17.2819 107.812 17.1992 107.336 17.2598C106.861 17.3203 106.414 17.5214 106.053 17.8372C105.673 18.2311 105.387 18.7049 105.214 19.224C105.04 19.7431 104.986 20.2943 105.053 20.8372C105.131 22.213 105.576 23.5426 106.343 24.6872C106.952 25.8258 107.918 26.7324 109.093 27.2672C109.499 27.4354 109.934 27.5204 110.373 27.5172C110.662 27.535 110.951 27.48 111.213 27.3572L111.473 27.2172L112.243 28.6672L112.123 28.7572C112.001 28.8253 111.874 28.8855 111.743 28.9372C111.536 29.0261 111.317 29.0866 111.093 29.1172C110.811 29.1576 110.525 29.1576 110.243 29.1172C109.87 29.0701 109.503 28.976 109.153 28.8372C108.163 28.4134 107.283 27.7666 106.583 26.9472C105.747 26.0297 105.071 24.9784 104.583 23.8372C104.096 22.7452 103.818 21.5716 103.763 20.3772C103.692 19.3748 103.896 18.372 104.353 17.4772C104.732 16.7266 105.389 16.1528 106.183 15.8772C107.013 15.5992 107.917 15.6456 108.713 16.0072C110.273 16.6636 111.591 17.7889 112.483 19.2272L112.493 19.2072ZM109.663 23.7872C109.772 23.6466 109.85 23.4855 109.895 23.3137C109.94 23.1419 109.949 22.9628 109.923 22.7872C109.909 22.3687 109.793 21.96 109.583 21.5972C109.406 21.2858 109.132 21.0402 108.803 20.8972C108.678 20.8287 108.534 20.8015 108.392 20.8195C108.25 20.8374 108.118 20.8996 108.013 20.9972C107.901 21.1221 107.818 21.2701 107.769 21.4309C107.721 21.5917 107.709 21.7612 107.733 21.9272C107.745 22.352 107.87 22.766 108.093 23.1272C108.279 23.4541 108.567 23.7106 108.913 23.8572C109.034 23.9196 109.171 23.9426 109.306 23.9229C109.44 23.9031 109.565 23.8417 109.663 23.7472" fill="#F47B56"/>
<path d="M188.443 88.8472C189.445 90.2895 190.024 91.9833 190.113 93.7372C190.229 94.5382 190.036 95.3532 189.573 96.0172C189.374 96.2325 189.109 96.3757 188.819 96.4245C188.53 96.4733 188.232 96.4251 187.973 96.2872C187.65 96.1594 187.357 95.9652 187.113 95.7172C186.897 95.5081 186.712 95.269 186.563 95.0072L186.403 94.7072C186.363 94.7865 186.312 94.8604 186.253 94.9272C186.098 95.0463 185.916 95.1253 185.723 95.1572C185.403 95.2164 185.072 95.1781 184.773 95.0472C184.064 94.7346 183.475 94.2015 183.093 93.5272C182.624 92.798 182.365 91.9539 182.343 91.0872C182.294 90.742 182.322 90.3901 182.424 90.0566C182.526 89.7231 182.7 89.4161 182.933 89.1572C183.136 88.9596 183.394 88.8295 183.674 88.7847C183.953 88.7399 184.239 88.7828 184.493 88.9072C184.753 89.0068 184.991 89.1563 185.193 89.3472C185.37 89.4975 185.528 89.6687 185.663 89.8572L185.783 90.0672V89.4972L187.063 89.9872L187.193 93.6072C187.204 93.8635 187.283 94.1122 187.423 94.3272C187.546 94.5358 187.732 94.7002 187.953 94.7972C188.603 95.0472 188.863 94.5072 188.823 93.1872C188.762 91.8842 188.332 90.6252 187.583 89.5572C186.914 88.4705 185.921 87.6207 184.743 87.1272C184.314 86.9097 183.83 86.8249 183.353 86.8837C182.876 86.9425 182.427 87.1421 182.063 87.4572C181.683 87.8511 181.397 88.3249 181.224 88.844C181.051 89.3631 180.996 89.9143 181.063 90.4572C181.136 91.8338 181.582 93.1646 182.353 94.3072C182.986 95.4162 183.962 96.2899 185.133 96.7972C185.538 96.9686 185.974 97.057 186.413 97.0572C186.701 97.0734 186.989 97.022 187.253 96.9072L187.513 96.7572L188.283 98.2072L188.163 98.2972C188.041 98.3654 187.914 98.4255 187.783 98.4772C187.576 98.5661 187.357 98.6266 187.133 98.6572C186.848 98.6972 186.559 98.6972 186.273 98.6572C185.903 98.6089 185.54 98.5148 185.193 98.3772C184.204 97.9513 183.325 97.3048 182.623 96.4872C181.785 95.5678 181.109 94.5129 180.623 93.3672C180.132 92.2802 179.854 91.1091 179.803 89.9172C179.731 88.918 179.935 87.9182 180.393 87.0272C180.774 86.2736 181.429 85.694 182.223 85.4072C183.057 85.1392 183.961 85.1854 184.763 85.5372C186.301 86.2363 187.586 87.392 188.443 88.8472ZM185.603 93.4172C185.717 93.2792 185.799 93.1187 185.846 92.9463C185.892 92.7739 185.902 92.5935 185.873 92.4172C185.862 91.9982 185.745 91.5888 185.533 91.2272C185.363 90.9114 185.092 90.6615 184.763 90.5172C184.635 90.4508 184.491 90.4248 184.348 90.4427C184.205 90.4605 184.071 90.5214 183.963 90.6172C183.853 90.7434 183.77 90.8913 183.72 91.0515C183.67 91.2117 183.654 91.3806 183.673 91.5472C183.695 91.9686 183.822 92.3778 184.043 92.7372C184.228 93.0669 184.516 93.3268 184.863 93.4772C184.983 93.5388 185.118 93.5614 185.251 93.5416C185.384 93.5219 185.507 93.4609 185.603 93.3672" fill="#F47B56"/>
<path opacity="0.25" d="M60.2531 116.267L38.4831 103.877L16.7131 116.287C16.7131 116.287 28.8231 123.857 39.6631 130.207C46.5531 125.347 52.6631 119.787 60.2531 116.267Z" fill="url(#paint4_linear_29_113)"/>
<path fill-rule="evenodd" clip-rule="evenodd" d="M20.9332 81.4672V108.407L41.9132 120.417L65.6132 106.407V79.4772" fill="black"/>
<path fill-rule="evenodd" clip-rule="evenodd" d="M20.9332 81.4672V108.407L41.9132 120.417L65.6132 106.407V79.4772" fill="#FF9271"/>
<path d="M41.9132 93.4872V120.417L65.6132 106.407V79.4772L41.9132 93.4872Z" fill="#DF5C34"/>
<path d="M20.9332 81.4672L45.2832 67.5872L65.6132 79.4772L41.9132 93.4872L20.9332 81.4672Z" fill="#F47B56"/>
<path d="M42.4732 73.7772C44.9405 73.6064 47.4048 74.1479 49.5732 75.3372C50.8232 76.0672 51.5032 76.8272 51.5732 77.6272C51.6013 78.0625 51.4931 78.4956 51.2637 78.8666C51.0343 79.2375 50.6951 79.5278 50.2932 79.6972C49.8341 79.9779 49.3301 80.1775 48.8032 80.2872C48.3674 80.3886 47.9207 80.4356 47.4732 80.4272H46.9932C47.0337 80.5375 47.0639 80.6513 47.0832 80.7672C47.0626 81.0416 46.9731 81.3064 46.8232 81.5372C46.5632 81.9538 46.202 82.2978 45.7732 82.5372C44.7599 83.1358 43.5999 83.4405 42.4232 83.4172C41.2246 83.4385 40.0427 83.1344 39.0032 82.5372C38.5877 82.3533 38.2267 82.0651 37.9552 81.7007C37.6836 81.3363 37.5107 80.908 37.4532 80.4572C37.4589 80.0377 37.5817 79.628 37.8079 79.2746C38.0341 78.9212 38.3546 78.6381 38.7332 78.4572C39.089 78.2496 39.473 78.0946 39.8732 77.9972C40.1988 77.9018 40.5344 77.8447 40.8732 77.8272H41.2232L40.5832 77.4372L42.3832 76.3172L46.5532 78.7772C46.8728 78.9497 47.2302 79.0399 47.5932 79.0399C47.9563 79.0399 48.3137 78.9497 48.6332 78.7772C49.5132 78.2172 49.1932 77.4972 47.6832 76.5972C46.0711 75.7109 44.2389 75.3049 42.4032 75.4272C40.4656 75.449 38.5694 75.9913 36.9132 76.9972C35.4032 77.9972 34.6532 79.0672 34.6632 80.3772C34.6732 81.6872 35.4632 82.8072 37.0232 83.7172C38.7264 84.6492 40.6541 85.0922 42.5932 84.9972C44.5296 85.03 46.4371 84.5246 48.1032 83.5372C48.6782 83.1948 49.1947 82.7627 49.6332 82.2572C49.9231 81.9446 50.1415 81.5727 50.2732 81.1672L50.3632 80.7572L52.7432 80.8972V81.1072C52.6972 81.3035 52.6404 81.4971 52.5732 81.6872C52.4631 81.9858 52.3258 82.2737 52.1632 82.5472C51.9158 82.9095 51.6309 83.2447 51.3132 83.5472C50.8937 83.9532 50.4309 84.312 49.9332 84.6172C48.5028 85.4726 46.9204 86.043 45.2732 86.2972C43.4754 86.6071 41.6404 86.6375 39.8332 86.3872C38.1911 86.1954 36.6036 85.6787 35.1632 84.8672C34.0029 84.2463 33.0736 83.268 32.5132 82.0772C32.2855 81.5587 32.1678 80.9986 32.1678 80.4322C32.1678 79.8659 32.2855 79.3057 32.5132 78.7872C33.062 77.5724 33.9831 76.5638 35.1432 75.9072C37.3497 74.5477 39.8819 73.8084 42.4732 73.7672V73.7772ZM44.8032 80.4072C44.764 80.187 44.6702 79.9802 44.5304 79.8055C44.3907 79.6308 44.2095 79.4939 44.0032 79.4072C43.4966 79.1244 42.9233 78.9828 42.3432 78.9972C41.7986 78.9763 41.2597 79.1154 40.7932 79.3972C40.6043 79.4881 40.4444 79.6298 40.3313 79.8064C40.2183 79.983 40.1566 80.1876 40.1532 80.3972C40.1814 80.6144 40.2653 80.8207 40.3967 80.9959C40.5281 81.1711 40.7026 81.3094 40.9032 81.3972C41.4219 81.6885 42.0085 81.8369 42.6032 81.8272C43.1757 81.8357 43.7395 81.6869 44.2332 81.3972C44.4253 81.3143 44.5865 81.1731 44.6941 80.9938C44.8017 80.8144 44.8504 80.6057 44.8332 80.3972" fill="#3E2928"/>
<defs>
<linearGradient id="paint0_linear_29_113" x1="137.049" y1="101.326" x2="130.284" y2="110.838" gradientUnits="userSpaceOnUse">
<stop stop-color="#7F3500"/>
<stop offset="1" stop-color="#231F20" stop-opacity="0"/>
</linearGradient>
<linearGradient id="paint1_linear_29_113" x1="108.774" y1="144.05" x2="94.2682" y2="160.129" gradientUnits="userSpaceOnUse">
<stop offset="0.03" stop-color="#7F3500"/>
<stop offset="1" stop-color="#231F20" stop-opacity="0"/>
</linearGradient>
<linearGradient id="paint2_linear_29_113" x1="76.7795" y1="75.9872" x2="65.7467" y2="87.9355" gradientUnits="userSpaceOnUse">
<stop stop-color="#843C09" stop-opacity="0.85"/>
<stop offset="1" stop-color="#231F20" stop-opacity="0"/>
</linearGradient>
<linearGradient id="paint3_linear_29_113" x1="179.671" y1="75.4436" x2="173.132" y2="70.2148" gradientUnits="userSpaceOnUse">
<stop stop-color="white" stop-opacity="0"/>
<stop offset="0.99" stop-color="#DC841E"/>
</linearGradient>
<linearGradient id="paint4_linear_29_113" x1="52.9613" y1="110.386" x2="38.267" y2="126.741" gradientUnits="userSpaceOnUse">
<stop offset="0.03" stop-color="#7F3500"/>
<stop offset="1" stop-color="#231F20" stop-opacity="0"/>
</linearGradient>
</defs>
</svg>
