<svg width="268" height="212" viewBox="0 0 268 212" fill="none" xmlns="http://www.w3.org/2000/svg">
<path opacity="0.0991676" d="M144.454 210.048L32.6666 142.239C29.1076 140.185 26.0571 136.82 29.5248 134.612L141.709 68.2482C143.391 67.1778 145.946 66.4753 147.66 67.4989L264.988 137.402C268.547 139.523 269.186 145.43 265.64 147.571L159.185 209.941C154.638 212.648 149.037 212.688 144.454 210.048Z" fill="#6862E6"/>
<path d="M143.994 178.096L33.676 112.919C30.1639 110.945 27.1534 107.71 30.5756 105.588L141.286 41.7996C142.946 40.7707 145.467 40.0954 147.159 41.0793L262.945 108.269C266.457 110.308 267.087 115.987 263.588 118.044L158.532 177.993C154.045 180.595 148.517 180.634 143.994 178.096Z" fill="#5B36A0"/>
<path d="M143.994 175.088L33.676 109.911C30.1639 107.936 27.1534 104.702 30.5756 102.579L141.286 38.7912C142.946 37.7623 145.467 37.087 147.159 38.071L262.945 105.261C266.457 107.3 267.087 112.978 263.588 115.036L158.532 174.985C154.045 177.587 148.517 177.626 143.994 175.088Z" fill="#6862E6"/>
<g style="mix-blend-mode:multiply" opacity="0.25">
<path d="M153.09 89.0938L131.322 101.512C131.322 101.512 164.855 121.969 171.712 124.85L184.249 106.843" fill="url(#paint0_linear_23_2)"/>
</g>
<g style="mix-blend-mode:multiply" opacity="0.25">
<path d="M145.57 148.67L123.796 136.277L102.022 148.695C102.022 148.695 113.362 155.615 124.201 161.969C131.084 157.101 137.973 152.181 145.57 148.67Z" fill="url(#paint1_linear_23_2)"/>
</g>
<g style="mix-blend-mode:multiply" opacity="0.46">
<path d="M98.6577 72.1419L84.847 80.0198C84.847 80.0198 86.0178 87.2417 92.8749 90.1227L110.957 78.5471" fill="url(#paint2_linear_23_2)"/>
</g>
<ellipse cx="105.418" cy="74.1548" rx="8.33015" ry="5.86499" fill="#68E1FD"/>
<ellipse cx="105.412" cy="70.695" rx="6.23957" ry="2.55307" fill="#974C26"/>
<path fill-rule="evenodd" clip-rule="evenodd" d="M105.058 62.9843C105.148 64.1354 105.187 65.2866 105.187 66.4377C105.18 67.8782 105.11 69.3188 104.955 70.7528C104.46 70.0647 103.971 69.3445 103.456 68.5342C102.794 67.4988 102.176 66.4377 101.61 65.3509C101.084 64.3844 100.634 63.3781 100.266 62.3412C99.8559 61.215 99.527 60.0609 99.2816 58.8878C99.2173 58.6049 99.1594 58.2705 99.1079 57.9618V57.8524V57.5823C99.0565 56.9778 99.005 56.3348 99.005 55.6917C98.9764 53.5046 99.3991 51.3351 100.247 49.3186C102.499 52.5842 104.017 56.2984 104.698 60.2062C104.741 60.4377 104.781 60.6713 104.82 60.9071C104.82 60.8621 104.91 61.3316 104.91 61.5052L104.974 62.0904C105.004 62.3862 105.032 62.6842 105.058 62.9843ZM101.913 53.4919C101.913 53.492 101.913 53.4922 101.913 53.4923H101.906C101.908 53.4922 101.91 53.492 101.913 53.4919ZM101.913 53.4919C102.071 53.483 102.23 53.5005 102.382 53.5437C102.228 53.3722 102.071 53.205 101.913 53.0421C101.946 53.1902 101.946 53.3438 101.913 53.4919Z" fill="#999A1C"/>
<path fill-rule="evenodd" clip-rule="evenodd" d="M109.085 64.3477C108.538 65.3959 107.972 66.3541 107.329 67.3252C106.55 68.5406 105.688 69.711 104.833 70.8493C104.775 70.0069 104.775 69.1322 104.775 68.174C104.775 66.9457 104.826 65.7239 104.942 64.502C105.022 63.4039 105.187 62.3137 105.438 61.2415C105.7 60.0715 106.046 58.9217 106.473 57.801C106.589 57.5052 106.711 57.2158 106.833 56.9264L106.833 56.9264L106.866 56.8235L106.994 56.5855C107.284 56.0261 107.592 55.473 107.927 54.9392C109.089 53.0812 110.622 51.483 112.43 50.2447C112.56 54.2126 111.83 58.1617 110.288 61.8203C110.198 62.0304 110.105 62.2447 110.011 62.4634L109.76 63.0165L109.497 63.5502C109.364 63.816 109.226 64.0818 109.085 64.3477ZM111.793 54.2704C111.75 54.4156 111.675 54.5495 111.574 54.6627C111.7 54.7289 111.815 54.8134 111.915 54.9135C111.881 54.7077 111.84 54.4934 111.793 54.2704Z" fill="#999A1C"/>
<path fill-rule="evenodd" clip-rule="evenodd" d="M109.213 69.1515C108.574 69.5245 107.931 69.8718 107.284 70.1934C106.473 70.5985 105.643 70.9586 104.814 71.3059C105.058 70.8364 105.335 70.3541 105.643 69.8397C106.049 69.1966 106.473 68.5535 106.93 67.9104C107.327 67.3429 107.768 66.8075 108.249 66.3091C108.769 65.7618 109.328 65.2525 109.921 64.785L110.397 64.4313L110.449 64.3862L110.596 64.2962C110.937 64.0904 111.278 63.8911 111.632 63.711C112.856 63.0823 114.196 62.7123 115.569 62.6242C114.359 64.805 112.691 66.6983 110.68 68.174L110.32 68.4377L110.011 68.6564L109.696 68.8557L109.213 69.1515ZM113.909 64.5856C113.839 64.6503 113.756 64.6986 113.665 64.7271V64.7335C113.708 64.8142 113.738 64.9009 113.755 64.9907C113.811 64.8578 113.862 64.7228 113.909 64.5856Z" fill="#999A1C"/>
<path fill-rule="evenodd" clip-rule="evenodd" d="M105.058 62.9843C105.148 64.1354 105.187 65.2866 105.187 66.4377C105.18 67.8782 105.11 69.3188 104.955 70.7528C104.46 70.0647 103.971 69.3445 103.456 68.5342C102.794 67.4988 102.176 66.4377 101.61 65.3509C101.084 64.3844 100.634 63.3781 100.266 62.3412C99.8559 61.215 99.527 60.0609 99.2816 58.8878C99.2173 58.6049 99.1594 58.2705 99.1079 57.9618V57.8524V57.5823C99.0565 56.9778 99.005 56.3348 99.005 55.6917C98.9764 53.5046 99.3991 51.3351 100.247 49.3186C102.499 52.5842 104.017 56.2984 104.698 60.2062C104.741 60.4377 104.781 60.6713 104.82 60.9071C104.82 60.8621 104.91 61.3316 104.91 61.5052L104.974 62.0904C105.004 62.3862 105.032 62.6842 105.058 62.9843ZM101.913 53.4919C101.913 53.492 101.913 53.4922 101.913 53.4923H101.906C101.908 53.4922 101.91 53.492 101.913 53.4919ZM101.913 53.4919C102.071 53.483 102.23 53.5005 102.382 53.5437C102.228 53.3722 102.071 53.205 101.913 53.0421C101.946 53.1902 101.946 53.3438 101.913 53.4919Z" fill="#999A1C"/>
<path fill-rule="evenodd" clip-rule="evenodd" d="M109.085 64.3477C108.538 65.3959 107.972 66.3541 107.329 67.3252C106.55 68.5406 105.688 69.711 104.833 70.8493C104.775 70.0069 104.775 69.1322 104.775 68.174C104.775 66.9457 104.826 65.7239 104.942 64.502C105.022 63.4039 105.187 62.3137 105.438 61.2415C105.7 60.0715 106.046 58.9217 106.473 57.801C106.589 57.5052 106.711 57.2158 106.833 56.9264L106.833 56.9264L106.866 56.8235L106.994 56.5855C107.284 56.0261 107.592 55.473 107.927 54.9392C109.089 53.0812 110.622 51.483 112.43 50.2447C112.56 54.2126 111.83 58.1617 110.288 61.8203C110.198 62.0304 110.105 62.2447 110.011 62.4634L109.76 63.0165L109.497 63.5502C109.364 63.816 109.226 64.0818 109.085 64.3477ZM111.793 54.2704C111.75 54.4156 111.675 54.5495 111.574 54.6627C111.7 54.7289 111.815 54.8134 111.915 54.9135C111.881 54.7077 111.84 54.4934 111.793 54.2704Z" fill="#999A1C"/>
<path fill-rule="evenodd" clip-rule="evenodd" d="M109.213 69.1515C108.574 69.5245 107.931 69.8718 107.284 70.1934C106.473 70.5985 105.643 70.9586 104.814 71.3059C105.058 70.8364 105.335 70.3541 105.643 69.8397C106.049 69.1966 106.473 68.5535 106.93 67.9104C107.327 67.3429 107.768 66.8075 108.249 66.3091C108.769 65.7618 109.328 65.2525 109.921 64.785L110.397 64.4313L110.449 64.3862L110.596 64.2962C110.937 64.0904 111.278 63.8911 111.632 63.711C112.856 63.0823 114.196 62.7123 115.569 62.6242C114.359 64.805 112.691 66.6983 110.68 68.174L110.32 68.4377L110.011 68.6564L109.696 68.8557L109.213 69.1515ZM113.909 64.5856C113.839 64.6503 113.756 64.6986 113.665 64.7271V64.7335C113.708 64.8142 113.738 64.9009 113.755 64.9907C113.811 64.8578 113.862 64.7228 113.909 64.5856Z" fill="#999A1C"/>
<path d="M161.735 84.2449L149.687 90.0327C148.762 90.4772 148.158 91.3963 148.118 92.4216C148.077 93.4469 148.607 94.4106 149.494 94.9266L178.048 111.583C179.331 112.332 180.976 111.938 181.779 110.689L188.72 99.8977" fill="#A1482D"/>
<path d="M227.264 56.3283L131.194 0.983927C129.852 0.212773 128.201 0.214722 126.862 0.989043C125.522 1.76336 124.697 3.19268 124.697 4.73958V62.3155C124.697 63.6022 125.383 64.7911 126.498 65.4345L228.917 124.541C229.636 124.958 230.523 124.958 231.242 124.543C231.962 124.127 232.405 123.359 232.403 122.528V65.1901C232.4 61.5294 230.44 58.1495 227.264 56.3283Z" fill="#F47B56"/>
<path d="M131.2 5.33765L224.369 58.9264C226.394 60.0921 227.642 62.2497 227.643 64.5856V107.743C227.642 108.584 227.193 109.36 226.466 109.781C225.738 110.202 224.842 110.205 224.112 109.788L129.097 55.3058C128.373 54.891 127.926 54.1207 127.926 53.2865V7.23477C127.926 6.45496 128.341 5.7342 129.016 5.34317C129.691 4.95214 130.523 4.95004 131.2 5.33765Z" fill="white"/>
<ellipse cx="169.964" cy="84.4673" rx="2.02623" ry="2.31515" transform="rotate(-10.9 169.964 84.4673)" fill="#AB643C"/>
<path opacity="0.32" d="M156.242 63.8911L199.539 89.8977L220.928 77.4667L182.712 55.2286" fill="url(#paint3_linear_23_2)"/>
<path d="M209.748 58.7142L162.938 30.1803C162.428 29.8852 161.797 29.8904 161.292 30.1938C160.787 30.4972 160.486 31.0511 160.507 31.6401V47.8974C160.503 48.4956 160.813 49.0521 161.324 49.3636L208.127 77.2931C208.627 77.5774 209.241 77.5738 209.739 77.2835C210.236 76.9933 210.541 76.4603 210.539 75.8847L210.783 60.7271C210.82 59.9199 210.426 59.1539 209.748 58.7142Z" fill="#E2AC00"/>
<path d="M198.549 67.0808C200.228 69.4281 203.18 70.084 205.136 68.5535C207.091 67.0229 207.316 63.8782 205.637 61.5373C203.959 59.1965 201.006 58.5341 199.05 60.0647C197.095 61.5952 196.87 64.7335 198.549 67.0808Z" fill="white"/>
<path d="M193.956 55.8139L174.864 44.3218C174.524 44.1628 174.119 44.2884 173.929 44.6118C173.739 44.9352 173.826 45.3501 174.131 45.5694L193.223 57.0614C193.562 57.2205 193.967 57.0949 194.157 56.7715C194.348 56.4481 194.26 56.0332 193.956 55.8139Z" fill="#F2F2F2"/>
<path d="M193.171 60.4827L166.856 44.6434C166.523 44.5271 166.155 44.6662 165.982 44.9734C165.809 45.2806 165.882 45.6673 166.154 45.891L192.438 61.7367C192.778 61.8958 193.183 61.7701 193.373 61.4467C193.563 61.1234 193.475 60.7085 193.171 60.4891V60.4827Z" fill="#F2F2F2"/>
<path d="M200.408 61.8653L153.624 33.3378C153.113 33.0428 152.483 33.048 151.978 33.3514C151.472 33.6548 151.172 34.2086 151.192 34.7976V51.0485C151.185 51.6478 151.492 52.2069 152.003 52.5212L198.806 80.4507C199.312 80.7414 199.936 80.7365 200.437 80.4379C200.938 80.1393 201.239 79.5934 201.225 79.0101L201.469 63.8525C201.491 63.0493 201.087 62.294 200.408 61.8653Z" fill="#F47B56"/>
<path d="M189.209 70.2319C190.888 72.5792 193.84 73.2352 195.796 71.7046C197.751 70.1741 197.976 67.0293 196.297 64.6885C194.618 62.3476 191.666 61.6853 189.71 63.2158C187.755 64.7464 187.53 67.8846 189.209 70.2319Z" fill="white"/>
<path d="M184.616 58.965L165.511 47.473C165.171 47.3139 164.766 47.4395 164.576 47.7629C164.386 48.0863 164.473 48.5012 164.778 48.7206L183.87 60.2126C184.209 60.3716 184.614 60.246 184.805 59.9226C184.995 59.5992 184.907 59.1843 184.603 58.965H184.616Z" fill="#F2F2F2"/>
<path d="M183.825 63.666L157.516 47.8009C157.176 47.6419 156.771 47.7675 156.581 48.0909C156.391 48.4143 156.478 48.8292 156.782 49.0485L183.098 64.8879C183.438 65.0469 183.843 64.9213 184.033 64.5979C184.223 64.2745 184.135 63.8596 183.831 63.6403L183.825 63.666Z" fill="#F2F2F2"/>
<path d="M188.668 63.7817L141.871 35.2542C141.361 34.9592 140.731 34.9644 140.225 35.2678C139.72 35.5712 139.419 36.125 139.44 36.714V52.9649C139.436 53.5632 139.746 54.1197 140.257 54.4312L187.06 82.3606C187.566 82.6514 188.19 82.6465 188.691 82.3479C189.192 82.0493 189.494 81.5034 189.479 80.9201L189.723 65.7624C189.744 64.9628 189.344 64.2108 188.668 63.7817Z" fill="#68E1FD"/>
<path d="M188.668 63.7817L141.871 35.2542C141.361 34.9592 140.731 34.9644 140.225 35.2678C139.72 35.5712 139.419 36.125 139.44 36.714V52.9649C139.436 53.5632 139.746 54.1197 140.257 54.4312L187.06 82.3606C187.566 82.6514 188.19 82.6465 188.691 82.3479C189.192 82.0493 189.494 81.5034 189.479 80.9201L189.723 65.7624C189.744 64.9628 189.344 64.2108 188.668 63.7817Z" fill="#68E1FD"/>
<path d="M177.463 72.1483C179.142 74.4956 182.094 75.1516 184.05 73.621C186.005 72.0905 186.23 68.9458 184.552 66.6049C182.873 64.2641 179.92 63.6017 177.965 65.1322C176.009 66.6628 175.803 69.8011 177.463 72.1483Z" fill="white"/>
<path d="M172.87 60.8814L153.772 49.3894C153.432 49.2303 153.027 49.3559 152.837 49.6793C152.647 50.0027 152.734 50.4176 153.038 50.637L172.13 62.129C172.47 62.2881 172.875 62.1624 173.065 61.839C173.255 61.5156 173.168 61.1008 172.864 60.8814H172.87Z" fill="#F2F2F2"/>
<path d="M172.079 65.5567L145.763 49.7173C145.423 49.5583 145.018 49.6839 144.828 50.0073C144.638 50.3307 144.726 50.7456 145.03 50.9649L171.345 66.8043C171.685 66.9633 172.09 66.8377 172.28 66.5143C172.47 66.1909 172.383 65.776 172.079 65.5567Z" fill="#F2F2F2"/>
<path d="M127.25 62.1869C124.226 64.7891 121.939 68.14 120.618 71.904C118.29 78.3349 124.111 88.843 124.111 88.843L133.168 81.6725" fill="#FF8F6F"/>
<path d="M126.273 147.21L123.815 145.853L124.459 142.342C124.459 142.342 128.119 142.689 128.44 143.988" fill="#003B94"/>
<path d="M127.173 147.158C127.726 146.818 128.305 146.515 128.878 146.213C130.299 145.435 132.351 144.631 133.226 143.171C133.593 142.567 133.547 141.798 133.11 141.242C131.824 139.686 129.006 142.245 127.566 140.522C127.283 140.181 127.147 134.773 127.147 134.773L121.667 136.252C121.667 136.252 120.741 147.12 120.844 147.789C120.946 148.457 122.831 149.075 122.831 149.075C123.393 148.956 123.928 148.738 124.414 148.432C124.986 148.014 124.465 142.914 125.198 143.628C125.932 144.342 126.253 147.133 126.253 147.133C126.558 147.179 126.867 147.187 127.173 147.158Z" fill="#F47B56"/>
<path d="M136.738 152.464L134.281 151.126L134.924 147.615C134.924 147.615 138.585 147.962 138.906 149.261" fill="#003B94"/>
<path d="M137.665 152.412C138.218 152.072 138.797 151.769 139.369 151.467C140.791 150.689 142.843 149.885 143.718 148.425C144.085 147.821 144.039 147.052 143.602 146.496C142.315 144.94 139.498 147.499 138.057 145.776C137.774 145.435 137.639 140.027 137.639 140.027L132.158 141.506C132.158 141.506 131.226 152.412 131.329 153.056C131.432 153.699 133.316 154.342 133.316 154.342C133.878 154.223 134.413 154.005 134.899 153.699C135.471 153.281 134.95 148.181 135.683 148.895C136.417 149.609 136.738 152.4 136.738 152.4C137.045 152.442 137.357 152.446 137.665 152.412Z" fill="#F47B56"/>
<path d="M118.882 117.133L117.267 138.721C117.267 138.721 119.84 142.271 128.466 140.297L128.55 125.744" fill="#3E2928"/>
<path d="M128.846 121.409C128.659 123.268 128.846 143.769 128.846 143.769C128.846 143.769 131.232 148.232 141.621 143.769L141.473 126.348" fill="#3E2928"/>
<path d="M118.078 124.264C118.785 124.753 119.03 122.239 119.769 122.67C122.461 124.232 125.317 125.492 128.286 126.425H128.35C128.493 126.356 128.658 126.347 128.807 126.402C128.957 126.456 129.077 126.569 129.141 126.715C130.976 127.262 132.843 127.691 134.731 128.001C137.156 128.387 139.163 126.592 141.653 126.47C141.653 116.94 141.698 89.8141 137.639 84.0262L125.629 79.9876C125.571 80.978 119.801 87.6661 119.943 95.8205C120.104 105.01 118.907 113.679 118.701 116.554C118.669 117.043 118.103 123.744 118.078 124.264Z" fill="#3E2928"/>
<path d="M138.745 73.068L137.639 84.0005C137.639 84.0005 128.678 84.3606 124.819 81.6982V72.4249" fill="#FF8F6F"/>
<path d="M150.137 65.8718L149.224 67.1194C149.711 66.1047 150.14 65.0634 150.51 64.0004C150.768 63.2737 149.603 62.9843 149.346 63.711L149.211 64.084C149.322 63.6981 149.428 63.3101 149.526 62.92C149.606 62.5986 149.41 62.2732 149.089 62.1933C148.767 62.1134 148.442 62.3092 148.362 62.6306C148.11 63.6398 147.807 64.6356 147.455 65.6145C147.651 64.7454 147.793 63.8648 147.879 62.9779C147.957 62.2126 146.754 62.2448 146.683 62.9779C146.583 63.9875 146.402 64.9875 146.143 65.9682C146.143 65.6253 146.111 65.2823 146.046 64.9393C146.028 64.7663 145.937 64.6093 145.795 64.5084C145.763 64.3734 145.725 64.2448 145.68 64.1097C145.585 63.832 145.305 63.6619 145.015 63.7062C144.725 63.7506 144.509 63.9966 144.502 64.2898L144.425 68.7914C144.207 69.2582 143.924 69.6914 143.583 70.0776C144.161 70.4779 144.72 70.9072 145.255 71.3638C145.733 71.7674 146.188 72.1968 146.619 72.65C147.005 72.1698 147.376 71.681 147.732 71.1837C147.776 71.1462 147.815 71.103 147.847 71.0551C148.919 69.4688 150.026 67.9082 151.166 66.3734C151.643 65.8461 150.594 65.2608 150.137 65.8718Z" fill="#FFB5A9"/>
<path d="M133.059 63.1001C133.059 63.1001 137.292 64.2383 139.009 66.9586C140.085 68.8414 141.032 70.7944 141.846 72.8043L144.972 67.949C144.972 67.949 148.767 69.113 150.272 70.9779C150.272 70.9779 145.77 80.8172 141.846 81.6597C137.922 82.5021 133.754 75.8847 133.754 75.8847C133.754 75.8847 132.892 78.65 133.059 75.6982" fill="#FF8F6F"/>
<path d="M135.748 73.6146C134.517 72.6138 133.589 71.2915 133.065 69.7946C132.557 68.0647 133.194 66.547 133.786 64.9393C134.426 63.3457 134.8 61.6575 134.892 59.9425C134.944 58.2576 134.751 56.5727 134.635 54.8942C134.618 54.8223 134.618 54.7475 134.635 54.6756C134.069 52.7785 132.911 51.1707 130.627 50.9778C124.716 50.4762 124.381 57.0229 124.426 59.6853C124.472 62.3476 124.755 64.1483 122.793 65.2608C120.831 66.3734 119.416 69.293 121.287 71.6532C123.159 74.0133 121.48 73.1516 120.232 75.248C118.985 77.3445 119.306 79.9619 121.866 80.9072C124.426 81.8526 136.327 80.0777 137.42 78.978C137.808 78.5349 138.009 77.9584 137.98 77.3702C137.713 75.8903 136.92 74.5566 135.748 73.6146Z" fill="#007F68"/>
<path fill-rule="evenodd" clip-rule="evenodd" d="M143.235 24.5082C143.144 22.7551 142.565 21.0623 141.563 19.6207C140.671 18.1801 139.354 17.052 137.793 16.3924C136.994 16.0358 136.09 15.99 135.259 16.2638C134.466 16.5445 133.811 17.1204 133.432 17.8715C132.975 18.7668 132.771 19.7693 132.84 20.7718C132.896 21.9644 133.175 23.1358 133.664 24.2252C134.151 25.3659 134.825 26.4177 135.658 27.3378C136.36 28.1558 137.24 28.8025 138.231 29.2285C138.579 29.3676 138.945 29.4606 139.318 29.505C139.602 29.5431 139.889 29.5431 140.173 29.505C140.395 29.4743 140.611 29.4137 140.817 29.3249C140.947 29.2736 141.074 29.2135 141.196 29.1449L141.325 29.0548L140.546 27.6079L140.289 27.7494C140.028 27.8701 139.74 27.9232 139.453 27.9037C139.011 27.9084 138.574 27.823 138.166 27.6529C136.996 27.1163 136.032 26.2134 135.42 25.0805C134.651 23.9336 134.207 22.6005 134.133 21.222C134.009 20.1258 134.39 19.0328 135.169 18.2509C135.906 17.5993 136.967 17.4642 137.845 17.9101C139.026 18.401 140.023 19.2515 140.694 20.341C141.441 21.4117 141.871 22.6708 141.936 23.9744C141.983 25.2906 141.696 25.8265 141.074 25.5822C140.852 25.4863 140.667 25.3217 140.546 25.1127C140.404 24.8964 140.324 24.6449 140.315 24.386L140.186 20.7718L138.9 20.2702V20.8426L138.784 20.6368C138.652 20.4485 138.496 20.2778 138.321 20.1287C138.115 19.9422 137.878 19.7941 137.62 19.6914C137.099 19.4355 136.474 19.5333 136.057 19.9358C135.582 20.4591 135.363 21.1652 135.458 21.8651C135.485 22.7295 135.743 23.5709 136.204 24.3024C136.587 24.9756 137.179 25.506 137.89 25.8137C138.188 25.9486 138.52 25.989 138.842 25.9294C139.034 25.9012 139.216 25.8236 139.369 25.7043C139.43 25.6382 139.482 25.5648 139.524 25.4857L139.678 25.7879C139.826 26.0478 140.013 26.2841 140.231 26.4889C140.474 26.7409 140.768 26.9382 141.093 27.0677C141.626 27.3511 142.283 27.2373 142.688 26.7912C143.152 26.1263 143.347 25.3109 143.235 24.5082ZM138.99 23.2413C139.032 23.581 138.937 23.9235 138.726 24.1931C138.528 24.3889 138.227 24.4356 137.98 24.3088C137.635 24.1596 137.348 23.9023 137.163 23.5757C136.937 23.2163 136.811 22.8036 136.796 22.3796C136.751 22.0424 136.855 21.7024 137.079 21.4471C137.296 21.2515 137.611 21.2105 137.87 21.3442C138.201 21.4878 138.474 21.7365 138.649 22.0516C138.862 22.4126 138.98 22.8221 138.99 23.2413Z" fill="#F47B56"/>
<path fill-rule="evenodd" clip-rule="evenodd" d="M219.184 94.142C219.095 92.3886 218.515 90.6953 217.512 89.2546C216.652 87.7979 215.362 86.6431 213.82 85.9491C213.017 85.5951 212.113 85.5493 211.279 85.8205C210.486 86.1051 209.832 86.6827 209.452 87.4346C208.995 88.3274 208.79 89.328 208.86 90.3285C208.915 91.5211 209.195 92.6926 209.683 93.7819C210.171 94.9247 210.845 95.9786 211.677 96.9009C212.381 97.7166 213.261 98.361 214.251 98.7852C214.597 98.9261 214.96 99.0212 215.331 99.0681C215.617 99.106 215.907 99.106 216.193 99.0681C216.414 99.0337 216.63 98.9733 216.836 98.8881C216.967 98.8367 217.094 98.7766 217.216 98.708L217.345 98.618L216.566 97.171L216.309 97.3125C216.047 97.4306 215.76 97.4836 215.473 97.4668C215.031 97.4667 214.594 97.3792 214.186 97.2096C213.017 96.6989 212.043 95.8265 211.407 94.7208C210.638 93.5745 210.193 92.2411 210.121 90.8623C209.984 89.7637 210.356 88.6629 211.131 87.8719C211.871 87.2241 212.93 87.0917 213.807 87.5375C214.985 88.0286 215.979 88.8765 216.65 89.962C217.396 91.0354 217.826 92.2964 217.891 93.6019C217.93 94.9202 217.666 95.454 217.023 95.2096C216.801 95.1137 216.616 94.9491 216.495 94.7401C216.355 94.5227 216.275 94.2719 216.264 94.0134L216.135 90.3993L214.849 89.9041V90.4764L214.727 90.2706C214.594 90.0805 214.439 89.9077 214.263 89.7562C214.058 89.5693 213.82 89.4212 213.562 89.3189C213.044 89.064 212.421 89.1618 212.006 89.5632C211.528 90.0847 211.308 90.7924 211.407 91.4925C211.434 92.3598 211.694 93.2039 212.16 93.9363C212.542 94.6119 213.133 95.1447 213.845 95.454C214.141 95.5891 214.472 95.6273 214.791 95.5633C214.984 95.5365 215.166 95.4588 215.318 95.3382C215.377 95.2711 215.429 95.1978 215.473 95.1195L215.627 95.4218C215.777 95.6808 215.963 95.9169 216.18 96.1228C216.425 96.3731 216.718 96.5702 217.042 96.7015C217.575 96.9826 218.23 96.869 218.638 96.425C219.101 95.7601 219.296 94.9447 219.184 94.142ZM214.945 92.8752C214.986 93.2157 214.888 93.5584 214.675 93.8269C214.476 94.0206 214.175 94.0647 213.929 93.9363C213.584 93.7845 213.297 93.5251 213.112 93.1967C212.887 92.8396 212.76 92.429 212.745 92.007C212.7 91.6688 212.806 91.3279 213.035 91.0745C213.253 90.881 213.568 90.8426 213.826 90.978C214.155 91.1211 214.427 91.3701 214.598 91.6854C214.814 92.0455 214.934 92.4553 214.945 92.8752Z" fill="#F47B56"/>
<g style="mix-blend-mode:multiply" opacity="0.25">
<path d="M89.324 116.676L67.5498 104.29L45.7821 116.702C45.7821 116.702 57.8946 124.264 68.7334 130.618C75.6163 125.756 81.7336 120.194 89.324 116.676Z" fill="url(#paint4_linear_23_2)"/>
</g>
<g filter="url(#filter0_d_23_2)">
<path fill-rule="evenodd" clip-rule="evenodd" d="M50 81.8778V108.813L70.9841 120.831L94.6777 106.818V79.8834" fill="#FF9271"/>
</g>
<path d="M70.9841 93.8959V120.831L94.6777 106.818V79.8834L70.9841 93.8959Z" fill="#DF5C34"/>
<path d="M50 81.8778L74.3469 68L94.6777 79.8834L70.9841 93.8959L50 81.8778Z" fill="#F47B56"/>
<path fill-rule="evenodd" clip-rule="evenodd" d="M78.645 75.747C76.4744 74.5584 74.0098 74.0155 71.5414 74.1822C68.9515 74.2278 66.4212 74.9675 64.2136 76.3241C63.0558 76.9833 62.1347 77.9908 61.581 79.2036C61.1193 80.2537 61.1193 81.4497 61.581 82.4999C62.14 83.6911 63.0707 84.6679 64.2328 85.2831C65.6727 86.0971 67.2601 86.616 68.9023 86.8095C70.7091 87.0596 72.5437 87.0271 74.3405 86.7133C75.9893 86.4624 77.5733 85.8917 79.0037 85.033C79.5001 84.7295 79.9619 84.3726 80.3808 83.9685C80.6986 83.6671 80.9821 83.3316 81.2263 82.968C81.3955 82.6983 81.533 82.4099 81.6363 82.1087C81.708 81.9208 81.7658 81.7279 81.8092 81.5315C81.8131 81.4589 81.8131 81.3861 81.8092 81.3135L79.4328 81.1788L79.3432 81.5828C79.2142 81.9898 78.9952 82.3624 78.7026 82.673C78.2652 83.1809 77.7481 83.6141 77.1717 83.9556C75.5058 84.9435 73.599 85.4496 71.6631 85.4178C69.7186 85.5 67.7895 85.0405 66.0904 84.0903C64.5339 83.1733 63.7332 82.0317 63.7332 80.7491C63.7204 79.4409 64.4698 78.3143 65.9815 77.3695C67.6426 76.3564 69.5453 75.8093 71.4901 75.7854C73.3253 75.6646 75.1567 76.0718 76.7682 76.959C78.2841 77.8568 78.6001 78.5815 77.7162 79.133C77.0683 79.4819 76.2887 79.4819 75.6408 79.133L71.4709 76.6768L69.671 77.7991L70.3115 78.1839H69.9592C69.6143 78.2031 69.2727 78.2612 68.9408 78.3571C68.5246 78.4652 68.1272 78.636 67.7622 78.8637C66.9865 79.232 66.489 80.0115 66.4811 80.871C66.5195 81.6662 67.032 82.3588 68.0312 82.9488C69.0879 83.5561 70.2914 83.8601 71.5093 83.8274C72.6865 83.8505 73.8468 83.544 74.8594 82.9424C75.2938 82.6962 75.656 82.3402 75.9099 81.9099C76.0624 81.6785 76.1508 81.4107 76.1661 81.1339C76.1519 81.017 76.1217 80.9027 76.0764 80.794L76.5632 80.8325C77.0092 80.8456 77.4549 80.8003 77.8891 80.6978C78.4175 80.591 78.9228 80.3913 79.3816 80.1078C80.3488 79.5242 80.7588 78.8316 80.6627 78.0364C80.5666 77.2412 79.8876 76.478 78.645 75.747ZM73.0723 79.8128C73.4879 79.9933 73.7876 80.3678 73.8729 80.8133H73.8986C73.9052 81.2232 73.6689 81.5982 73.2965 81.7688C72.8045 82.0597 72.2407 82.2064 71.6695 82.1921C71.0752 82.2058 70.4884 82.0573 69.972 81.7624C69.5615 81.5823 69.2749 81.2004 69.2162 80.7555C69.2259 80.3283 69.473 79.9423 69.8568 79.7551C70.3241 79.4751 70.8626 79.3369 71.4069 79.3575C71.9926 79.3583 72.5675 79.5154 73.0723 79.8128Z" fill="#3E2928"/>
<defs>
<filter id="filter0_d_23_2" x="0" y="54.8834" width="144.678" height="140.947" filterUnits="userSpaceOnUse" color-interpolation-filters="sRGB">
<feFlood flood-opacity="0" result="BackgroundImageFix"/>
<feColorMatrix in="SourceAlpha" type="matrix" values="0 0 0 0 0 0 0 0 0 0 0 0 0 0 0 0 0 0 127 0" result="hardAlpha"/>
<feOffset dy="25"/>
<feGaussianBlur stdDeviation="25"/>
<feColorMatrix type="matrix" values="0 0 0 0 0.209139 0 0 0 0 0.0691446 0 0 0 0 0.478091 0 0 0 0.497159 0"/>
<feBlend mode="normal" in2="BackgroundImageFix" result="effect1_dropShadow_23_2"/>
<feBlend mode="normal" in="SourceGraphic" in2="effect1_dropShadow_23_2" result="shape"/>
</filter>
<linearGradient id="paint0_linear_23_2" x1="152.88" y1="93.0298" x2="147.356" y2="109.429" gradientUnits="userSpaceOnUse">
<stop stop-color="#78B46A"/>
<stop offset="0.03" stop-color="#7F3500"/>
<stop offset="1" stop-color="white"/>
</linearGradient>
<linearGradient id="paint1_linear_23_2" x1="116.638" y1="126.59" x2="107.345" y2="155.86" gradientUnits="userSpaceOnUse">
<stop stop-color="#78B46A"/>
<stop offset="0.03" stop-color="#7F3500"/>
<stop offset="1" stop-color="white"/>
</linearGradient>
<linearGradient id="paint2_linear_23_2" x1="93.6228" y1="65.182" x2="85.0255" y2="85.0579" gradientUnits="userSpaceOnUse">
<stop stop-color="#78B46A"/>
<stop offset="0.03" stop-color="#7F3500"/>
<stop offset="1" stop-color="white"/>
</linearGradient>
<linearGradient id="paint3_linear_23_2" x1="214.611" y1="82.9565" x2="211.253" y2="74.4329" gradientUnits="userSpaceOnUse">
<stop stop-color="white" stop-opacity="0.01"/>
<stop offset="0.99" stop-color="#DC841E"/>
</linearGradient>
<linearGradient id="paint4_linear_23_2" x1="60.9121" y1="94.437" x2="51.1352" y2="123.753" gradientUnits="userSpaceOnUse">
<stop stop-color="#78B46A"/>
<stop offset="0.03" stop-color="#7F3500"/>
<stop offset="1" stop-color="white"/>
</linearGradient>
</defs>
</svg>
