<svg width="90" height="106" viewBox="0 0 90 106" fill="none" xmlns="http://www.w3.org/2000/svg">
<g id="Group 6">
<path id="Path" fill-rule="evenodd" clip-rule="evenodd" d="M0 27.7556V81.6252L41.9682 105.661L89.3554 77.6363V23.7667" fill="#FF9271"/>
<path id="Path_2" d="M41.9682 51.7917V105.661L89.3554 77.6363V23.7667L41.9682 51.7917V51.7917Z" fill="#DF5C34"/>
<path id="Path_3" d="M0 27.7557L48.6939 0L89.3554 23.7667L41.9682 51.7917L0 27.7557V27.7557Z" fill="#F47B56"/>
<path id="Shape" fill-rule="evenodd" clip-rule="evenodd" d="M57.2899 15.4939C52.9487 13.1168 48.0196 12.031 43.0828 12.3643C37.903 12.4557 32.8423 13.9349 28.4272 16.6483C26.1116 17.9666 24.2694 19.9816 23.1619 22.4072C22.2387 24.5075 22.2387 26.8994 23.1619 28.9998C24.28 31.3821 26.1415 33.3359 28.4656 34.5663C31.3455 36.1943 34.5202 37.232 37.8047 37.6189C41.4182 38.1191 45.0875 38.0542 48.6811 37.4265C51.9787 36.9248 55.1467 35.7833 58.0074 34.0661C59.0003 33.4591 59.9239 32.7451 60.7617 31.9369C61.3971 31.3343 61.9642 30.6633 62.4527 29.9361C62.791 29.3966 63.0661 28.8199 63.2726 28.2174C63.416 27.8416 63.5316 27.4558 63.6185 27.063C63.6261 26.9178 63.6261 26.7722 63.6185 26.6269L58.8657 26.3576L58.6863 27.1656C58.4284 27.9796 57.9905 28.7249 57.4052 29.3461C56.5304 30.3618 55.4963 31.2281 54.3435 31.9113C51.0116 33.887 47.198 34.8992 43.3262 34.8356C39.4372 35.0001 35.579 34.081 32.1808 32.1806C29.0677 30.3465 27.4664 28.0635 27.4664 25.4983C27.4408 22.8817 28.9396 20.6286 31.963 18.7389C35.2852 16.7128 39.0905 15.6186 42.9803 15.5709C46.6506 15.3291 50.3133 16.1435 53.5364 17.918C56.5683 19.7137 57.2003 21.163 55.4324 22.2661C54.1366 22.9639 52.5775 22.9639 51.2817 22.2661L42.9418 17.3537L39.342 19.5983L40.6231 20.3678H39.9185C39.2287 20.4062 38.5454 20.5224 37.8816 20.7141C37.0491 20.9304 36.2543 21.2721 35.5244 21.7274C33.973 22.464 32.9781 24.023 32.9622 25.7419C33.0391 27.3324 34.0639 28.7176 36.0624 29.8976C38.1759 31.1122 40.5827 31.7202 43.0187 31.6548C45.3731 31.7009 47.6936 31.0879 49.7188 29.8848C50.5876 29.3925 51.3121 28.6804 51.8197 27.8198C52.1248 27.357 52.3017 26.8215 52.3322 26.2678C52.3038 26.0341 52.2435 25.8053 52.1528 25.588L53.1264 25.665C54.0183 25.6912 54.9098 25.6006 55.7783 25.3956C56.8351 25.182 57.8457 24.7825 58.7632 24.2156C60.6976 23.0485 61.5175 21.6633 61.3254 20.0728C61.1332 18.4824 59.7752 16.9561 57.2899 15.4939ZM46.1445 23.6256C46.9758 23.9867 47.5752 24.7356 47.7459 25.6265H47.7971C47.8103 26.4464 47.3377 27.1965 46.5929 27.5376C45.6089 28.1195 44.4814 28.4128 43.339 28.3841C42.1504 28.4116 40.9768 28.1145 39.9441 27.5248C39.1231 27.1645 38.5498 26.4009 38.4324 25.5111C38.4517 24.6566 38.9461 23.8845 39.7135 23.5102C40.6482 22.9501 41.7252 22.6739 42.8137 22.715C43.9851 22.7165 45.1349 23.0309 46.1445 23.6256Z" fill="#3E2928"/>
</g>
</svg>
